<svg xmlns="http://www.w3.org/2000/svg" viewBox="0 0 360 400"><!--Tsubaki Icons by Inori Tsubaki - https://tsubakivexillology.github.io--><polygon points="238.38 157.89 224.12 165.36 235.15 171.13 191.03 194.23 180 188.45 157.94 200 121.62 219.01 113.82 223.1 69.71 200 113.82 176.9 135.88 165.36 55.18 123.11 99.3 100.02 180 142.26 271.76 94.23 180 46.19 88.23 94.23 44.14 117.33 0 94.23 180 0 360 94.23 238.38 157.89"/><polygon points="360 305.77 180 400 55.15 334.64 99.28 311.55 180 353.81 271.76 305.77 180 257.74 88.23 305.77 44.12 328.87 0 305.77 135.88 234.64 124.85 228.87 168.97 205.77 180 211.55 202.06 200 246.18 176.9 290.29 200 246.18 223.1 224.12 234.64 360 305.77"/></svg>