<svg xmlns="http://www.w3.org/2000/svg" viewBox="0 0 400 399.81"><!--Tsubaki Icons by Inori Tsubaki - https://tsubakivexillology.github.io--><path d="M205,0V40.21a42.48,42.48,0,0,1,15,79.68V82.41H180v37.48a42.48,42.48,0,0,1,15-79.68V0C86.86,2.66,0,91.12,0,199.91s86.86,197.25,195,199.9V359.6a42.48,42.48,0,0,1-15-79.68v37.49h40V279.92a42.48,42.48,0,0,1-15,79.68v40.21c108.14-2.65,195-91.12,195-199.9S313.14,2.66,205,0ZM180,237.37a82.48,82.48,0,0,0-59.73,101.22,159.93,159.93,0,0,1,0-277.36A82.47,82.47,0,0,0,180,162.44Zm99.73,101.22A82.48,82.48,0,0,0,220,237.37V162.44A82.47,82.47,0,0,0,279.73,61.23a159.93,159.93,0,0,1,0,277.36Z"/></svg>